<svg xmlns="http://www.w3.org/2000/svg" width="200.925" height="200.925" viewBox="0 0 200.925 200.925">
  <path id="Trazado_335" data-name="Trazado 335" d="M-1372.312-1403.172q-3.937,0-7.892-.312a100.1,100.1,0,0,1-37.088-10.334,100.085,100.085,0,0,1-30.506-23.49,99.807,99.807,0,0,1-19.839-34.6,99.8,99.8,0,0,1-4.862-39.585,100.1,100.1,0,0,1,10.335-37.088,100.074,100.074,0,0,1,23.489-30.506,99.808,99.808,0,0,1,34.6-19.84,99.814,99.814,0,0,1,39.585-4.862,100.09,100.09,0,0,1,37.088,10.335,100.077,100.077,0,0,1,30.507,23.488,99.8,99.8,0,0,1,19.839,34.6,99.813,99.813,0,0,1,4.862,39.584,100.1,100.1,0,0,1-10.335,37.089,100.092,100.092,0,0,1-23.489,30.507,99.822,99.822,0,0,1-34.6,19.839A100,100,0,0,1-1372.312-1403.172Zm-.073-200.322a99.4,99.4,0,0,0-31.5,5.143,99.22,99.22,0,0,0-34.39,19.721,99.5,99.5,0,0,0-23.347,30.323,99.5,99.5,0,0,0-10.273,36.867,99.192,99.192,0,0,0,4.833,39.346,99.22,99.22,0,0,0,19.72,34.39,99.493,99.493,0,0,0,30.325,23.347,99.49,99.49,0,0,0,36.866,10.273,99.21,99.21,0,0,0,39.347-4.833l.1.286-.1-.286a99.206,99.206,0,0,0,34.39-19.72,99.517,99.517,0,0,0,23.348-30.324,99.5,99.5,0,0,0,10.273-36.866,99.212,99.212,0,0,0-4.833-39.347,99.211,99.211,0,0,0-19.72-34.39,99.5,99.5,0,0,0-30.324-23.347,99.482,99.482,0,0,0-36.866-10.274Q-1368.469-1603.494-1372.385-1603.494Zm-.52,196.667q-3.866,0-7.744-.306a98.222,98.222,0,0,1-36.4-10.142,98.233,98.233,0,0,1-29.936-23.05,97.909,97.909,0,0,1-19.469-33.951,97.932,97.932,0,0,1-4.772-38.845,98.22,98.22,0,0,1,10.143-36.4,98.239,98.239,0,0,1,23.049-29.937,97.964,97.964,0,0,1,33.951-19.469,97.963,97.963,0,0,1,38.846-4.771,98.255,98.255,0,0,1,36.4,10.143,98.224,98.224,0,0,1,29.938,23.05,97.928,97.928,0,0,1,19.468,33.951,97.915,97.915,0,0,1,4.771,38.845,98.212,98.212,0,0,1-10.142,36.4,98.235,98.235,0,0,1-23.05,29.937A97.946,97.946,0,0,1-1341.8-1411.9l-.095-.286.095.286A98.137,98.137,0,0,1-1372.905-1406.827Zm-.072-196.571a97.534,97.534,0,0,0-30.912,5.046,97.351,97.351,0,0,0-33.744,19.35,97.622,97.622,0,0,0-22.909,29.754,97.615,97.615,0,0,0-10.08,36.173,97.331,97.331,0,0,0,4.742,38.608,97.381,97.381,0,0,0,19.349,33.744,97.645,97.645,0,0,0,29.754,22.909,97.641,97.641,0,0,0,36.174,10.08,97.33,97.33,0,0,0,38.607-4.743,97.338,97.338,0,0,0,33.743-19.349,97.637,97.637,0,0,0,22.909-29.754,97.634,97.634,0,0,0,10.082-36.173,97.364,97.364,0,0,0-4.744-38.607,97.347,97.347,0,0,0-19.348-33.743,97.643,97.643,0,0,0-29.755-22.909,97.627,97.627,0,0,0-36.173-10.081Q-1369.135-1603.4-1372.977-1603.4Zm-.521,192.915q-3.792,0-7.6-.3a96.348,96.348,0,0,1-35.7-9.95,96.34,96.34,0,0,1-29.367-22.611,96.064,96.064,0,0,1-19.1-33.305,96.081,96.081,0,0,1-4.681-38.105,96.364,96.364,0,0,1,9.95-35.7,96.361,96.361,0,0,1,22.611-29.368,96.089,96.089,0,0,1,33.3-19.1,96.079,96.079,0,0,1,38.106-4.68,96.348,96.348,0,0,1,35.7,9.949,96.348,96.348,0,0,1,29.368,22.61,96.107,96.107,0,0,1,19.1,33.305,96.069,96.069,0,0,1,4.68,38.106,96.356,96.356,0,0,1-9.949,35.7,96.341,96.341,0,0,1-22.611,29.367,96.063,96.063,0,0,1-33.305,19.1l-.1-.287.1.287A96.276,96.276,0,0,1-1373.5-1410.483Zm-.071-192.817a95.673,95.673,0,0,0-30.32,4.949,95.489,95.489,0,0,0-33.1,18.979,95.758,95.758,0,0,0-22.469,29.185,95.748,95.748,0,0,0-9.887,35.48,95.456,95.456,0,0,0,4.651,37.868,95.491,95.491,0,0,0,18.979,33.1,95.756,95.756,0,0,0,29.185,22.469,95.758,95.758,0,0,0,35.48,9.888,95.464,95.464,0,0,0,37.868-4.652,95.469,95.469,0,0,0,33.1-18.979,95.757,95.757,0,0,0,22.471-29.185,95.738,95.738,0,0,0,9.887-35.48,95.462,95.462,0,0,0-4.651-37.868,95.468,95.468,0,0,0-18.979-33.1,95.76,95.76,0,0,0-29.185-22.471,95.75,95.75,0,0,0-35.481-9.887Q-1369.8-1603.3-1373.569-1603.3Zm-.522,189.162q-3.718,0-7.449-.294a94.481,94.481,0,0,1-35.01-9.755,94.478,94.478,0,0,1-28.8-22.173,94.2,94.2,0,0,1-18.728-32.659,94.2,94.2,0,0,1-4.59-37.366,94.5,94.5,0,0,1,9.756-35.011,94.5,94.5,0,0,1,22.172-28.8,94.231,94.231,0,0,1,32.658-18.728,94.231,94.231,0,0,1,37.367-4.59,94.476,94.476,0,0,1,35.01,9.757,94.491,94.491,0,0,1,28.8,22.172,94.233,94.233,0,0,1,18.728,32.659,94.226,94.226,0,0,1,4.59,37.366,94.489,94.489,0,0,1-9.756,35.011,94.494,94.494,0,0,1-22.173,28.8,94.207,94.207,0,0,1-32.658,18.728A94.409,94.409,0,0,1-1374.092-1414.139Zm-.07-189.065a93.8,93.8,0,0,0-29.728,4.853,93.6,93.6,0,0,0-32.45,18.609,93.871,93.871,0,0,0-22.032,28.614,93.9,93.9,0,0,0-9.695,34.789,93.612,93.612,0,0,0,4.561,37.129,93.626,93.626,0,0,0,18.609,32.451,93.854,93.854,0,0,0,28.615,22.031,93.871,93.871,0,0,0,34.788,9.7,93.614,93.614,0,0,0,37.129-4.562l.1.286-.1-.286a93.612,93.612,0,0,0,32.451-18.607,93.887,93.887,0,0,0,22.032-28.616,93.883,93.883,0,0,0,9.694-34.788,93.625,93.625,0,0,0-4.561-37.129,93.625,93.625,0,0,0-18.608-32.451,93.893,93.893,0,0,0-28.615-22.031,93.887,93.887,0,0,0-34.789-9.694Q-1370.465-1603.2-1374.161-1603.2Zm-.524,185.41q-3.643,0-7.3-.288a92.624,92.624,0,0,1-34.317-9.563,92.627,92.627,0,0,1-28.228-21.734,92.354,92.354,0,0,1-18.356-32.012,92.346,92.346,0,0,1-4.5-36.627,92.6,92.6,0,0,1,9.563-34.317,92.62,92.62,0,0,1,21.734-28.229,92.35,92.35,0,0,1,32.012-18.357,92.357,92.357,0,0,1,36.628-4.5,92.6,92.6,0,0,1,34.318,9.562,92.625,92.625,0,0,1,28.228,21.735,92.364,92.364,0,0,1,18.357,32.012,92.372,92.372,0,0,1,4.5,36.628,92.637,92.637,0,0,1-9.564,34.317,92.617,92.617,0,0,1-21.733,28.228,92.365,92.365,0,0,1-32.013,18.358l-.1-.286.1.286A92.537,92.537,0,0,1-1374.685-1417.795Zm-.068-185.313a91.947,91.947,0,0,0-29.136,4.756,91.74,91.74,0,0,0-31.8,18.238,92.008,92.008,0,0,0-21.593,28.046,92.023,92.023,0,0,0-9.5,34.094,91.747,91.747,0,0,0,4.471,36.39,91.736,91.736,0,0,0,18.238,31.806,92.055,92.055,0,0,0,28.044,21.593,92.02,92.02,0,0,0,34.1,9.5,91.76,91.76,0,0,0,36.39-4.47,91.757,91.757,0,0,0,31.8-18.237,92.028,92.028,0,0,0,21.593-28.045,92.042,92.042,0,0,0,9.5-34.1,91.746,91.746,0,0,0-4.471-36.389,91.741,91.741,0,0,0-18.238-31.805,92.022,92.022,0,0,0-28.044-21.593,92.011,92.011,0,0,0-34.1-9.5Q-1371.132-1603.108-1374.753-1603.108Zm-.525,181.657q-3.569,0-7.154-.283a90.749,90.749,0,0,1-33.625-9.37,90.756,90.756,0,0,1-27.659-21.3,90.492,90.492,0,0,1-17.986-31.366,90.484,90.484,0,0,1-4.408-35.888,90.743,90.743,0,0,1,9.371-33.625,90.715,90.715,0,0,1,21.295-27.658,90.5,90.5,0,0,1,31.365-17.987,90.491,90.491,0,0,1,35.889-4.408,90.757,90.757,0,0,1,33.625,9.371,90.736,90.736,0,0,1,27.659,21.3,90.492,90.492,0,0,1,17.986,31.366,90.5,90.5,0,0,1,4.409,35.887,90.755,90.755,0,0,1-9.371,33.626,90.756,90.756,0,0,1-21.295,27.657,90.476,90.476,0,0,1-31.366,17.988A90.67,90.67,0,0,1-1375.278-1421.45Zm-.067-181.561a90.054,90.054,0,0,0-28.544,4.66,89.911,89.911,0,0,0-31.159,17.867,90.173,90.173,0,0,0-21.154,27.476,90.155,90.155,0,0,0-9.309,33.4,89.874,89.874,0,0,0,4.38,35.65,89.876,89.876,0,0,0,17.867,31.159,90.13,90.13,0,0,0,27.475,21.154,90.16,90.16,0,0,0,33.4,9.309,89.887,89.887,0,0,0,35.65-4.38l.1.286-.1-.286a89.9,89.9,0,0,0,31.159-17.867,90.163,90.163,0,0,0,21.155-27.476,90.156,90.156,0,0,0,9.308-33.4,89.876,89.876,0,0,0-4.38-35.651,89.9,89.9,0,0,0-17.867-31.159,90.161,90.161,0,0,0-27.476-21.155,90.149,90.149,0,0,0-33.4-9.308Q-1371.8-1603.011-1375.345-1603.011Zm-.527,177.9q-3.5,0-7.006-.276a88.882,88.882,0,0,1-32.933-9.177,88.881,88.881,0,0,1-27.089-20.856,88.611,88.611,0,0,1-17.615-30.721,88.606,88.606,0,0,1-4.318-35.148,88.886,88.886,0,0,1,9.177-32.933,88.864,88.864,0,0,1,20.856-27.087,88.632,88.632,0,0,1,30.72-17.617,88.629,88.629,0,0,1,35.149-4.317,88.894,88.894,0,0,1,32.933,9.177,88.882,88.882,0,0,1,27.088,20.856,88.617,88.617,0,0,1,17.616,30.721,88.6,88.6,0,0,1,4.317,35.149,88.875,88.875,0,0,1-9.177,32.932,88.864,88.864,0,0,1-20.856,27.088,88.6,88.6,0,0,1-30.72,17.616A88.77,88.77,0,0,1-1375.872-1425.107Zm-.065-177.807a88.192,88.192,0,0,0-27.952,4.563,88.025,88.025,0,0,0-30.512,17.5,88.278,88.278,0,0,0-20.715,26.905,88.294,88.294,0,0,0-9.116,32.71,88.05,88.05,0,0,0,4.289,34.911,88.028,88.028,0,0,0,17.5,30.512,88.286,88.286,0,0,0,26.906,20.715,88.284,88.284,0,0,0,32.71,9.116,88.018,88.018,0,0,0,34.911-4.289l.1.286-.1-.286a88.02,88.02,0,0,0,30.512-17.5,88.286,88.286,0,0,0,20.716-26.906,88.3,88.3,0,0,0,9.115-32.709,88.034,88.034,0,0,0-4.288-34.912,88.024,88.024,0,0,0-17.5-30.512,88.27,88.27,0,0,0-26.9-20.716,88.283,88.283,0,0,0-32.71-9.116Q-1372.462-1602.915-1375.937-1602.914Zm-.527,174.152q-3.423,0-6.86-.271a87.032,87.032,0,0,1-32.24-8.985,87,87,0,0,1-26.519-20.417,86.756,86.756,0,0,1-17.246-30.074,86.756,86.756,0,0,1-4.227-34.41,87.022,87.022,0,0,1,8.984-32.24,87.021,87.021,0,0,1,20.417-26.519,86.78,86.78,0,0,1,30.074-17.246,86.775,86.775,0,0,1,34.41-4.227,87.013,87.013,0,0,1,32.24,8.985,87,87,0,0,1,26.519,20.417,86.755,86.755,0,0,1,17.246,30.074,86.755,86.755,0,0,1,4.227,34.41,87,87,0,0,1-8.984,32.24,87.005,87.005,0,0,1-20.417,26.519,86.768,86.768,0,0,1-30.075,17.246l-.1-.286.1.286A86.915,86.915,0,0,1-1376.465-1428.762Zm-.064-174.056a86.327,86.327,0,0,0-27.36,4.467,86.181,86.181,0,0,0-29.866,17.126,86.423,86.423,0,0,0-20.277,26.336,86.422,86.422,0,0,0-8.922,32.018,86.177,86.177,0,0,0,4.2,34.172,86.168,86.168,0,0,0,17.127,29.866,86.4,86.4,0,0,0,26.335,20.277,86.416,86.416,0,0,0,32.018,8.923,86.134,86.134,0,0,0,34.171-4.2,86.158,86.158,0,0,0,29.867-17.125,86.425,86.425,0,0,0,20.277-26.337,86.382,86.382,0,0,0,8.922-32.017,86.167,86.167,0,0,0-4.2-34.172,86.147,86.147,0,0,0-17.126-29.866,86.407,86.407,0,0,0-26.336-20.277,86.4,86.4,0,0,0-32.017-8.923Q-1373.128-1602.817-1376.529-1602.818Zm-.529,170.4q-3.349,0-6.711-.265a85.161,85.161,0,0,1-31.548-8.792,85.158,85.158,0,0,1-25.949-19.979,84.9,84.9,0,0,1-16.875-29.428,84.9,84.9,0,0,1-4.136-33.67,85.142,85.142,0,0,1,8.792-31.546,85.139,85.139,0,0,1,19.979-25.949,84.886,84.886,0,0,1,29.427-16.876,84.911,84.911,0,0,1,33.671-4.135,85.113,85.113,0,0,1,31.547,8.792,85.14,85.14,0,0,1,25.949,19.978,84.927,84.927,0,0,1,16.875,29.429,84.892,84.892,0,0,1,4.136,33.669,85.123,85.123,0,0,1-8.792,31.547,85.139,85.139,0,0,1-19.979,25.949,84.906,84.906,0,0,1-29.428,16.875A85.048,85.048,0,0,1-1377.058-1432.418Zm-.062-170.3a84.471,84.471,0,0,0-26.768,4.37,84.3,84.3,0,0,0-29.219,16.756,84.529,84.529,0,0,0-19.839,25.766,84.551,84.551,0,0,0-8.73,31.325,84.283,84.283,0,0,0,4.108,33.432,84.276,84.276,0,0,0,16.755,29.22,84.54,84.54,0,0,0,25.766,19.838,84.537,84.537,0,0,0,31.325,8.73,84.3,84.3,0,0,0,33.432-4.107,84.281,84.281,0,0,0,29.22-16.756,84.534,84.534,0,0,0,19.839-25.767,84.549,84.549,0,0,0,8.729-31.324,84.319,84.319,0,0,0-4.107-33.433,84.293,84.293,0,0,0-16.756-29.22,84.556,84.556,0,0,0-25.766-19.839,84.556,84.556,0,0,0-31.324-8.729Q-1373.793-1602.72-1377.121-1602.721Zm-.531,166.646q-3.277,0-6.565-.259a83.254,83.254,0,0,1-30.854-8.6,83.276,83.276,0,0,1-25.379-19.541,83.036,83.036,0,0,1-16.5-28.782,83.055,83.055,0,0,1-4.045-32.931,83.271,83.271,0,0,1,8.6-30.854,83.284,83.284,0,0,1,19.54-25.38,83.06,83.06,0,0,1,28.781-16.5,83.05,83.05,0,0,1,32.931-4.045,83.271,83.271,0,0,1,30.855,8.6,83.245,83.245,0,0,1,25.378,19.541,83.007,83.007,0,0,1,16.5,28.781,83.023,83.023,0,0,1,4.045,32.931,83.265,83.265,0,0,1-8.6,30.854,83.243,83.243,0,0,1-19.541,25.379,83.026,83.026,0,0,1-28.782,16.5l-.1-.286.1.286A83.185,83.185,0,0,1-1377.652-1436.075Zm-.062-166.55a82.609,82.609,0,0,0-26.176,4.274,82.434,82.434,0,0,0-28.574,16.386,82.66,82.66,0,0,0-19.4,25.2,82.669,82.669,0,0,0-8.537,30.632,82.43,82.43,0,0,0,4.017,32.692A82.415,82.415,0,0,0-1440-1464.87a82.693,82.693,0,0,0,25.2,19.4,82.68,82.68,0,0,0,30.632,8.536,82.428,82.428,0,0,0,32.693-4.016,82.423,82.423,0,0,0,28.574-16.386,82.654,82.654,0,0,0,19.4-25.2,82.662,82.662,0,0,0,8.535-30.631,82.406,82.406,0,0,0-4.016-32.693,82.43,82.43,0,0,0-16.384-28.575,82.692,82.692,0,0,0-25.2-19.4,82.69,82.69,0,0,0-30.632-8.537Q-1374.459-1602.624-1377.713-1602.625Zm-.531,162.9q-3.2,0-6.417-.253a81.422,81.422,0,0,1-30.163-8.405,81.4,81.4,0,0,1-24.809-19.1,81.145,81.145,0,0,1-16.134-28.136,81.169,81.169,0,0,1-3.956-32.191,81.431,81.431,0,0,1,8.406-30.162,81.41,81.41,0,0,1,19.1-24.81,81.18,81.18,0,0,1,28.135-16.134,81.185,81.185,0,0,1,32.193-3.954,81.422,81.422,0,0,1,30.161,8.4,81.438,81.438,0,0,1,24.809,19.1,81.15,81.15,0,0,1,16.134,28.137,81.161,81.161,0,0,1,3.955,32.191,81.4,81.4,0,0,1-8.405,30.161,81.413,81.413,0,0,1-19.1,24.81,81.162,81.162,0,0,1-28.137,16.135A81.319,81.319,0,0,1-1378.244-1439.73Zm-.061-162.8a80.711,80.711,0,0,0-25.584,4.176,80.559,80.559,0,0,0-27.928,16.015,80.773,80.773,0,0,0-18.96,24.627,80.8,80.8,0,0,0-8.343,29.938,80.571,80.571,0,0,0,3.925,31.954,80.572,80.572,0,0,0,16.015,27.928,80.828,80.828,0,0,0,24.626,18.962,80.8,80.8,0,0,0,29.939,8.343,80.545,80.545,0,0,0,31.955-3.925l.094.286-.094-.286a80.574,80.574,0,0,0,27.927-16.015,80.783,80.783,0,0,0,18.961-24.627,80.789,80.789,0,0,0,8.343-29.939,80.559,80.559,0,0,0-3.925-31.954,80.586,80.586,0,0,0-16.015-27.928,80.789,80.789,0,0,0-24.626-18.96,80.8,80.8,0,0,0-29.938-8.344Q-1375.125-1602.527-1378.3-1602.527Zm-.533,159.141q-3.13,0-6.27-.247a79.551,79.551,0,0,1-29.469-8.212,79.536,79.536,0,0,1-24.24-18.663A79.293,79.293,0,0,1-1454.58-1498a79.286,79.286,0,0,1-3.864-31.452,79.519,79.519,0,0,1,8.212-29.469,79.511,79.511,0,0,1,18.663-24.239,79.308,79.308,0,0,1,27.489-15.764,79.335,79.335,0,0,1,31.452-3.864,79.548,79.548,0,0,1,29.47,8.212,79.545,79.545,0,0,1,24.24,18.664,79.3,79.3,0,0,1,15.764,27.489,79.306,79.306,0,0,1,3.863,31.453,79.534,79.534,0,0,1-8.211,29.469,79.545,79.545,0,0,1-18.663,24.24,79.322,79.322,0,0,1-27.49,15.763A79.478,79.478,0,0,1-1378.838-1443.386Zm-.058-159.045a78.853,78.853,0,0,0-24.993,4.08,78.736,78.736,0,0,0-27.282,15.645,78.961,78.961,0,0,0-18.522,24.057,78.937,78.937,0,0,0-8.149,29.247,78.689,78.689,0,0,0,3.835,31.215,78.684,78.684,0,0,0,15.643,27.281,78.941,78.941,0,0,0,24.057,18.522,78.946,78.946,0,0,0,29.247,8.15,78.728,78.728,0,0,0,31.214-3.834,78.708,78.708,0,0,0,27.283-15.645,78.924,78.924,0,0,0,18.521-24.056,78.929,78.929,0,0,0,8.151-29.247,78.707,78.707,0,0,0-3.834-31.214,78.688,78.688,0,0,0-15.645-27.282,78.946,78.946,0,0,0-24.057-18.523,78.936,78.936,0,0,0-29.247-8.149Q-1375.79-1602.432-1378.9-1602.431Zm-.535,155.389q-3.056,0-6.123-.241a77.647,77.647,0,0,1-28.777-8.02,77.654,77.654,0,0,1-23.67-18.224,77.423,77.423,0,0,1-15.393-26.843,77.44,77.44,0,0,1-3.772-30.713,77.651,77.651,0,0,1,8.019-28.776,77.668,77.668,0,0,1,18.224-23.67,77.456,77.456,0,0,1,26.843-15.393,77.459,77.459,0,0,1,30.713-3.772,77.656,77.656,0,0,1,28.776,8.019,77.669,77.669,0,0,1,23.67,18.224,77.436,77.436,0,0,1,15.393,26.844,77.438,77.438,0,0,1,3.773,30.712,77.657,77.657,0,0,1-8.019,28.776,77.67,77.67,0,0,1-18.225,23.67,77.443,77.443,0,0,1-26.843,15.393l-.1-.286.1.286A77.589,77.589,0,0,1-1379.431-1447.043Zm-.057-155.292a76.979,76.979,0,0,0-24.4,3.983,76.833,76.833,0,0,0-26.636,15.274,77.054,77.054,0,0,0-18.083,23.486,77.049,77.049,0,0,0-7.957,28.555,76.826,76.826,0,0,0,3.744,30.476,76.846,76.846,0,0,0,15.273,26.636,77.063,77.063,0,0,0,23.487,18.083,77.083,77.083,0,0,0,28.554,7.958,76.848,76.848,0,0,0,30.476-3.745A76.836,76.836,0,0,0-1328.4-1466.9a77.047,77.047,0,0,0,18.084-23.487,77.071,77.071,0,0,0,7.957-28.554,76.853,76.853,0,0,0-3.743-30.476,76.852,76.852,0,0,0-15.274-26.636,77.059,77.059,0,0,0-23.486-18.083,77.065,77.065,0,0,0-28.555-7.957Q-1376.455-1602.335-1379.488-1602.334Zm-.537,151.637q-2.981,0-5.976-.237a75.783,75.783,0,0,1-28.083-7.825,75.8,75.8,0,0,1-23.1-17.787,75.571,75.571,0,0,1-15.021-26.2,75.576,75.576,0,0,1-3.682-29.974,75.8,75.8,0,0,1,7.826-28.083,75.772,75.772,0,0,1,17.786-23.1,75.582,75.582,0,0,1,26.2-15.023,75.584,75.584,0,0,1,29.974-3.681,75.8,75.8,0,0,1,28.084,7.826,75.792,75.792,0,0,1,23.1,17.786,75.6,75.6,0,0,1,15.023,26.2,75.605,75.605,0,0,1,3.682,29.973,75.816,75.816,0,0,1-7.827,28.083,75.79,75.79,0,0,1-17.786,23.1,75.582,75.582,0,0,1-26.2,15.023A75.735,75.735,0,0,1-1380.025-1450.7Zm-.056-151.541a75.128,75.128,0,0,0-23.808,3.887,74.991,74.991,0,0,0-25.989,14.9,75.189,75.189,0,0,0-17.645,22.918,75.158,75.158,0,0,0-7.764,27.861,74.964,74.964,0,0,0,3.652,29.735,74.978,74.978,0,0,0,14.9,25.99,75.189,75.189,0,0,0,22.917,17.645,75.192,75.192,0,0,0,27.861,7.764,74.97,74.97,0,0,0,29.736-3.653l.095.286-.095-.286a74.982,74.982,0,0,0,25.99-14.9,75.182,75.182,0,0,0,17.644-22.917,75.208,75.208,0,0,0,7.765-27.861,74.971,74.971,0,0,0-3.653-29.736,74.978,74.978,0,0,0-14.9-25.989,75.178,75.178,0,0,0-22.917-17.645,75.185,75.185,0,0,0-27.861-7.765Q-1377.12-1602.237-1380.081-1602.238Zm-.537,147.884q-2.91,0-5.829-.23a73.913,73.913,0,0,1-27.391-7.633,73.934,73.934,0,0,1-22.531-17.347,73.694,73.694,0,0,1-14.652-25.552,73.732,73.732,0,0,1-3.591-29.234,73.939,73.939,0,0,1,7.633-27.391,73.92,73.92,0,0,1,17.348-22.53,73.686,73.686,0,0,1,25.55-14.652,73.718,73.718,0,0,1,29.235-3.591,73.941,73.941,0,0,1,27.391,7.633,73.94,73.94,0,0,1,22.53,17.347,73.713,73.713,0,0,1,14.652,25.551,73.72,73.72,0,0,1,3.591,29.235,73.919,73.919,0,0,1-7.633,27.39,73.91,73.91,0,0,1-17.347,22.531,73.707,73.707,0,0,1-25.551,14.652l-.1-.287.1.287A73.876,73.876,0,0,1-1380.617-1454.354Zm-.055-147.788a73.267,73.267,0,0,0-23.217,3.791,73.135,73.135,0,0,0-25.344,14.533,73.338,73.338,0,0,0-17.206,22.348,73.309,73.309,0,0,0-7.571,27.169,73.115,73.115,0,0,0,3.562,29,73.122,73.122,0,0,0,14.533,25.344,73.312,73.312,0,0,0,22.348,17.205,73.289,73.289,0,0,0,27.168,7.572,73.1,73.1,0,0,0,29-3.562,73.1,73.1,0,0,0,25.344-14.532,73.33,73.33,0,0,0,17.206-22.348,73.32,73.32,0,0,0,7.571-27.169,73.1,73.1,0,0,0-3.562-29,73.1,73.1,0,0,0-14.533-25.343,73.313,73.313,0,0,0-22.347-17.206,73.335,73.335,0,0,0-27.169-7.572Q-1377.786-1602.141-1380.672-1602.142Zm-.539,144.132q-2.834,0-5.681-.225a72.047,72.047,0,0,1-26.7-7.439,72.081,72.081,0,0,1-21.961-16.909,71.851,71.851,0,0,1-14.281-24.9,71.847,71.847,0,0,1-3.5-28.5,72.044,72.044,0,0,1,7.44-26.7,72.063,72.063,0,0,1,16.907-21.961,71.88,71.88,0,0,1,24.9-14.281,71.854,71.854,0,0,1,28.5-3.5,72.062,72.062,0,0,1,26.7,7.44,72.06,72.06,0,0,1,21.96,16.908,71.834,71.834,0,0,1,14.281,24.9,71.851,71.851,0,0,1,3.5,28.5,72.072,72.072,0,0,1-7.44,26.7,72.065,72.065,0,0,1-16.909,21.96,71.849,71.849,0,0,1-24.9,14.282A71.986,71.986,0,0,1-1381.211-1458.01Zm-.054-144.035a71.4,71.4,0,0,0-22.624,3.693,71.26,71.26,0,0,0-24.7,14.162,71.457,71.457,0,0,0-16.768,21.778,71.455,71.455,0,0,0-7.378,26.476,71.248,71.248,0,0,0,3.472,28.257,71.252,71.252,0,0,0,14.162,24.7,71.465,71.465,0,0,0,21.778,16.768,71.458,71.458,0,0,0,26.476,7.378,71.262,71.262,0,0,0,28.257-3.471l.095.286-.095-.286a71.257,71.257,0,0,0,24.7-14.163,71.449,71.449,0,0,0,16.767-21.777,71.463,71.463,0,0,0,7.378-26.476,71.253,71.253,0,0,0-3.471-28.258,71.239,71.239,0,0,0-14.162-24.7,71.462,71.462,0,0,0-21.778-16.768,71.446,71.446,0,0,0-26.476-7.378Q-1378.452-1602.044-1381.265-1602.045Zm-.539,140.379q-2.761,0-5.533-.218a70.195,70.195,0,0,1-26.006-7.248,70.19,70.19,0,0,1-21.391-16.469,70,70,0,0,1-13.911-24.26,69.993,69.993,0,0,1-3.41-27.755,70.2,70.2,0,0,1,7.247-26.006,70.2,70.2,0,0,1,16.47-21.391,69.983,69.983,0,0,1,24.258-13.911,70.024,70.024,0,0,1,27.756-3.41,70.207,70.207,0,0,1,26.006,7.248,70.173,70.173,0,0,1,21.391,16.47,69.993,69.993,0,0,1,13.911,24.259,69.974,69.974,0,0,1,3.41,27.756,70.208,70.208,0,0,1-7.247,26.006,70.191,70.191,0,0,1-16.47,21.391,69.981,69.981,0,0,1-24.258,13.91l-.1-.286.1.286A70.1,70.1,0,0,1-1381.8-1461.665Zm-.052-140.283a69.53,69.53,0,0,0-22.033,3.6,69.4,69.4,0,0,0-24.051,13.792,69.573,69.573,0,0,0-16.328,21.209,69.574,69.574,0,0,0-7.186,25.783,69.391,69.391,0,0,0,3.38,27.518A69.384,69.384,0,0,0-1434.282-1486a69.58,69.58,0,0,0,21.208,16.328,69.574,69.574,0,0,0,25.783,7.186,69.383,69.383,0,0,0,27.518-3.38,69.394,69.394,0,0,0,24.052-13.792,69.59,69.59,0,0,0,16.329-21.208,69.607,69.607,0,0,0,7.186-25.783,69.383,69.383,0,0,0-3.381-27.518,69.375,69.375,0,0,0-13.792-24.052,69.559,69.559,0,0,0-21.208-16.329,69.581,69.581,0,0,0-25.783-7.186Q-1379.118-1601.947-1381.856-1601.948Zm-.542,136.626q-2.688,0-5.386-.212a68.335,68.335,0,0,1-25.313-7.055,68.315,68.315,0,0,1-20.821-16.031,68.115,68.115,0,0,1-13.54-23.613,68.109,68.109,0,0,1-3.319-27.016,68.33,68.33,0,0,1,7.054-25.314,68.323,68.323,0,0,1,16.031-20.821,68.123,68.123,0,0,1,23.612-13.541,68.118,68.118,0,0,1,27.018-3.318,68.333,68.333,0,0,1,25.313,7.054,68.306,68.306,0,0,1,20.82,16.03,68.111,68.111,0,0,1,13.541,23.613,68.116,68.116,0,0,1,3.319,27.017,68.313,68.313,0,0,1-7.054,25.313,68.334,68.334,0,0,1-16.032,20.821,68.143,68.143,0,0,1-23.612,13.541l-.1-.287.1.287A68.268,68.268,0,0,1-1382.4-1465.322Zm-.05-136.53a67.662,67.662,0,0,0-21.441,3.5,67.529,67.529,0,0,0-23.4,13.421,67.717,67.717,0,0,0-15.89,20.638,67.718,67.718,0,0,0-6.992,25.091,67.536,67.536,0,0,0,3.29,26.778,67.51,67.51,0,0,0,13.421,23.406,67.716,67.716,0,0,0,20.638,15.889,67.713,67.713,0,0,0,25.09,6.992,67.531,67.531,0,0,0,26.779-3.289,67.535,67.535,0,0,0,23.405-13.421,67.737,67.737,0,0,0,15.89-20.639,67.708,67.708,0,0,0,6.992-25.091,67.525,67.525,0,0,0-3.29-26.778,67.535,67.535,0,0,0-13.421-23.405,67.706,67.706,0,0,0-20.639-15.89,67.68,67.68,0,0,0-25.09-6.992Q-1379.783-1601.852-1382.448-1601.852Zm-.542,132.875q-2.615,0-5.238-.207a66.479,66.479,0,0,1-24.622-6.861,66.468,66.468,0,0,1-20.251-15.593,66.242,66.242,0,0,1-13.169-22.966,66.249,66.249,0,0,1-3.229-26.277,66.462,66.462,0,0,1,6.861-24.621,66.447,66.447,0,0,1,15.592-20.251,66.247,66.247,0,0,1,22.966-13.17,66.281,66.281,0,0,1,26.278-3.228,66.469,66.469,0,0,1,24.62,6.861,66.437,66.437,0,0,1,20.251,15.592,66.267,66.267,0,0,1,13.17,22.967,66.241,66.241,0,0,1,3.228,26.278,66.447,66.447,0,0,1-6.86,24.62,66.443,66.443,0,0,1-15.592,20.251,66.265,66.265,0,0,1-22.967,13.17l-.095-.286.095.286A66.371,66.371,0,0,1-1382.99-1468.977Zm-.05-132.778a65.787,65.787,0,0,0-20.849,3.4,65.676,65.676,0,0,0-22.758,13.051,65.835,65.835,0,0,0-15.452,20.069,65.849,65.849,0,0,0-6.8,24.4,65.677,65.677,0,0,0,3.2,26.04,65.665,65.665,0,0,0,13.05,22.758,65.871,65.871,0,0,0,20.069,15.452,65.827,65.827,0,0,0,24.4,6.8,65.638,65.638,0,0,0,26.04-3.2,65.658,65.658,0,0,0,22.759-13.05,65.853,65.853,0,0,0,15.451-20.069,65.841,65.841,0,0,0,6.8-24.4,65.652,65.652,0,0,0-3.2-26.04,65.65,65.65,0,0,0-13.051-22.76,65.847,65.847,0,0,0-20.068-15.451,65.85,65.85,0,0,0-24.4-6.8Q-1380.448-1601.754-1383.04-1601.755Zm-.544,129.121q-2.542,0-5.091-.2a64.572,64.572,0,0,1-23.928-6.667,64.584,64.584,0,0,1-19.681-15.154,64.381,64.381,0,0,1-12.8-22.321,64.4,64.4,0,0,1-3.137-25.538,64.583,64.583,0,0,1,6.668-23.927,64.543,64.543,0,0,1,15.154-19.682,64.39,64.39,0,0,1,22.319-12.8,64.413,64.413,0,0,1,25.539-3.136,64.586,64.586,0,0,1,23.928,6.667,64.581,64.581,0,0,1,19.681,15.154,64.375,64.375,0,0,1,12.8,22.321,64.409,64.409,0,0,1,3.137,25.538,64.583,64.583,0,0,1-6.668,23.927,64.575,64.575,0,0,1-15.152,19.681,64.386,64.386,0,0,1-22.321,12.8l-.1-.285.1.285A64.487,64.487,0,0,1-1383.584-1472.634Zm-.048-129.024a63.926,63.926,0,0,0-20.257,3.307,63.809,63.809,0,0,0-22.113,12.68,63.985,63.985,0,0,0-15.012,19.5,63.993,63.993,0,0,0-6.607,23.705,63.8,63.8,0,0,0,3.109,25.3,63.779,63.779,0,0,0,12.68,22.112,63.967,63.967,0,0,0,19.5,15.013,63.97,63.97,0,0,0,23.706,6.606,63.755,63.755,0,0,0,25.3-3.109,63.773,63.773,0,0,0,22.114-12.68,63.961,63.961,0,0,0,15.012-19.5,64,64,0,0,0,6.607-23.705,63.788,63.788,0,0,0-3.109-25.3,63.772,63.772,0,0,0-12.68-22.112,63.951,63.951,0,0,0-19.5-15.013,63.964,63.964,0,0,0-23.7-6.606Q-1381.115-1601.658-1383.632-1601.658Zm-.545,125.369q-2.468,0-4.945-.195a62.705,62.705,0,0,1-23.234-6.475,62.708,62.708,0,0,1-19.111-14.714,62.5,62.5,0,0,1-12.429-21.674,62.538,62.538,0,0,1-3.047-24.8,62.71,62.71,0,0,1,6.475-23.235,62.7,62.7,0,0,1,14.715-19.112,62.533,62.533,0,0,1,21.673-12.429,62.545,62.545,0,0,1,24.8-3.046,62.726,62.726,0,0,1,23.235,6.475,62.723,62.723,0,0,1,19.112,14.715,62.526,62.526,0,0,1,12.428,21.674,62.515,62.515,0,0,1,3.047,24.8,62.724,62.724,0,0,1-6.475,23.236,62.736,62.736,0,0,1-14.715,19.112,62.53,62.53,0,0,1-21.674,12.428A62.64,62.64,0,0,1-1384.177-1476.289Zm-.047-125.272a62.048,62.048,0,0,0-19.665,3.21,61.931,61.931,0,0,0-21.467,12.311,62.142,62.142,0,0,0-14.574,18.928,62.107,62.107,0,0,0-6.412,23.013,61.927,61.927,0,0,0,3.017,24.561,61.908,61.908,0,0,0,12.31,21.467,62.129,62.129,0,0,0,18.929,14.574,62.11,62.11,0,0,0,23.013,6.413,61.926,61.926,0,0,0,24.561-3.017l.1.286-.1-.286a61.918,61.918,0,0,0,21.467-12.309,62.107,62.107,0,0,0,14.575-18.929,62.11,62.11,0,0,0,6.413-23.013,61.927,61.927,0,0,0-3.018-24.56,61.918,61.918,0,0,0-12.309-21.467,62.119,62.119,0,0,0-18.929-14.575,62.122,62.122,0,0,0-23.013-6.413Q-1381.78-1601.561-1384.224-1601.562Zm-.547,121.617q-2.4,0-4.8-.189a60.841,60.841,0,0,1-22.542-6.281,60.827,60.827,0,0,1-18.542-14.277,60.649,60.649,0,0,1-12.059-21.027,60.661,60.661,0,0,1-2.955-24.06,60.838,60.838,0,0,1,6.282-22.542,60.826,60.826,0,0,1,14.276-18.542,60.664,60.664,0,0,1,21.028-12.06,60.675,60.675,0,0,1,24.06-2.955,60.852,60.852,0,0,1,22.543,6.282,60.876,60.876,0,0,1,18.542,14.276,60.671,60.671,0,0,1,12.057,21.029,60.645,60.645,0,0,1,2.956,24.059,60.849,60.849,0,0,1-6.282,22.543,60.855,60.855,0,0,1-14.276,18.542,60.664,60.664,0,0,1-21.028,12.058A60.788,60.788,0,0,1-1384.771-1479.945Zm-.045-121.52a60.187,60.187,0,0,0-19.073,3.113,60.082,60.082,0,0,0-20.82,11.94,60.237,60.237,0,0,0-14.136,18.359,60.246,60.246,0,0,0-6.219,22.32,60.072,60.072,0,0,0,2.925,23.821,60.076,60.076,0,0,0,11.939,20.82,60.241,60.241,0,0,0,18.359,14.136,60.241,60.241,0,0,0,22.32,6.22,60.065,60.065,0,0,0,23.822-2.926,60.066,60.066,0,0,0,20.821-11.939,60.245,60.245,0,0,0,14.135-18.359,60.243,60.243,0,0,0,6.22-22.32,60.054,60.054,0,0,0-2.926-23.822,60.062,60.062,0,0,0-11.939-20.82,60.251,60.251,0,0,0-18.359-14.136,60.24,60.24,0,0,0-22.32-6.219Q-1382.445-1601.465-1384.816-1601.465Zm.045,121.52q-2.4,0-4.8-.189a60.841,60.841,0,0,1-22.542-6.281,60.827,60.827,0,0,1-18.542-14.277,60.649,60.649,0,0,1-12.059-21.027,60.661,60.661,0,0,1-2.955-24.06,60.838,60.838,0,0,1,6.282-22.542,60.826,60.826,0,0,1,14.276-18.542,60.664,60.664,0,0,1,21.028-12.06,60.675,60.675,0,0,1,24.06-2.955,60.852,60.852,0,0,1,22.543,6.282,60.876,60.876,0,0,1,18.542,14.276,60.671,60.671,0,0,1,12.057,21.029,60.645,60.645,0,0,1,2.956,24.059,60.849,60.849,0,0,1-6.282,22.543,60.855,60.855,0,0,1-14.276,18.542,60.664,60.664,0,0,1-21.028,12.058A60.788,60.788,0,0,1-1384.771-1479.945Zm-.045-121.52a60.187,60.187,0,0,0-19.073,3.113,60.082,60.082,0,0,0-20.82,11.94,60.237,60.237,0,0,0-14.136,18.359,60.246,60.246,0,0,0-6.219,22.32,60.072,60.072,0,0,0,2.925,23.821,60.076,60.076,0,0,0,11.939,20.82,60.241,60.241,0,0,0,18.359,14.136,60.241,60.241,0,0,0,22.32,6.22,60.065,60.065,0,0,0,23.822-2.926,60.066,60.066,0,0,0,20.821-11.939,60.245,60.245,0,0,0,14.135-18.359,60.243,60.243,0,0,0,6.22-22.32,60.054,60.054,0,0,0-2.926-23.822,60.062,60.062,0,0,0-11.939-20.82,60.251,60.251,0,0,0-18.359-14.136,60.24,60.24,0,0,0-22.32-6.219Q-1382.445-1601.465-1384.816-1601.465Zm.5,121.445q-2.337,0-4.682-.184a59.4,59.4,0,0,1-22.008-6.133,59.386,59.386,0,0,1-18.1-13.938,59.225,59.225,0,0,1-11.773-20.53,59.237,59.237,0,0,1-2.885-23.49,59.4,59.4,0,0,1,6.132-22.008,59.41,59.41,0,0,1,13.939-18.1,59.252,59.252,0,0,1,20.53-11.773,59.244,59.244,0,0,1,23.49-2.885,59.4,59.4,0,0,1,22.008,6.132,59.416,59.416,0,0,1,18.1,13.938,59.225,59.225,0,0,1,11.773,20.53,59.248,59.248,0,0,1,2.886,23.49,59.419,59.419,0,0,1-6.133,22.009,59.4,59.4,0,0,1-13.939,18.1,59.208,59.208,0,0,1-20.529,11.773l-.1-.286.1.286A59.344,59.344,0,0,1-1384.315-1480.02Zm-.043-118.626a58.71,58.71,0,0,0-18.617,3.04,58.613,58.613,0,0,0-20.322,11.653,58.771,58.771,0,0,0-13.8,17.92,58.8,58.8,0,0,0-6.072,21.786,58.616,58.616,0,0,0,2.857,23.252,58.628,58.628,0,0,0,11.653,20.322,58.8,58.8,0,0,0,17.919,13.8,58.8,58.8,0,0,0,21.786,6.071,58.618,58.618,0,0,0,23.251-2.855,58.638,58.638,0,0,0,20.323-11.654,58.8,58.8,0,0,0,13.8-17.92,58.789,58.789,0,0,0,6.071-21.787,58.628,58.628,0,0,0-2.855-23.251,58.643,58.643,0,0,0-11.653-20.322,58.809,58.809,0,0,0-17.921-13.8,58.782,58.782,0,0,0-21.786-6.071Q-1382.044-1598.647-1384.358-1598.646Zm.5,118.553q-2.281,0-4.569-.181a57.938,57.938,0,0,1-21.474-5.984,57.934,57.934,0,0,1-17.664-13.6,57.766,57.766,0,0,1-11.486-20.031,57.764,57.764,0,0,1-2.815-22.919,57.951,57.951,0,0,1,5.984-21.475,57.96,57.96,0,0,1,13.6-17.663,57.773,57.773,0,0,1,20.033-11.488,57.789,57.789,0,0,1,22.919-2.815,57.952,57.952,0,0,1,21.474,5.984,57.961,57.961,0,0,1,17.664,13.6,57.8,57.8,0,0,1,11.488,20.032,57.81,57.81,0,0,1,2.815,22.919,57.982,57.982,0,0,1-5.984,21.474,57.961,57.961,0,0,1-13.6,17.663,57.784,57.784,0,0,1-20.031,11.487A57.921,57.921,0,0,1-1383.858-1480.094Zm.034-115.746a57.632,57.632,0,0,0-18.237,2.977,57.171,57.171,0,0,0-33.284,28.848,57.173,57.173,0,0,0-3.136,43.933,57.169,57.169,0,0,0,28.849,33.283,57.168,57.168,0,0,0,43.933,3.137l.1.286-.1-.286a57.169,57.169,0,0,0,33.283-28.849,57.169,57.169,0,0,0,3.136-43.933,57.169,57.169,0,0,0-28.849-33.283A57.307,57.307,0,0,0-1383.824-1595.839Zm.422,115.67q-2.224,0-4.456-.176a56.5,56.5,0,0,1-20.94-5.835,56.508,56.508,0,0,1-17.224-13.261,56.334,56.334,0,0,1-11.2-19.534,56.357,56.357,0,0,1-2.745-22.349,56.5,56.5,0,0,1,5.835-20.94,56.526,56.526,0,0,1,13.261-17.225,56.373,56.373,0,0,1,19.534-11.2,56.342,56.342,0,0,1,22.35-2.745,56.507,56.507,0,0,1,20.939,5.835,56.521,56.521,0,0,1,17.225,13.262,56.348,56.348,0,0,1,11.2,19.533,56.354,56.354,0,0,1,2.745,22.35,56.538,56.538,0,0,1-5.835,20.941,56.521,56.521,0,0,1-13.262,17.223,56.352,56.352,0,0,1-19.533,11.2A56.466,56.466,0,0,1-1383.4-1480.169Zm.033-112.851a56.216,56.216,0,0,0-17.779,2.9,55.74,55.74,0,0,0-32.447,28.124,55.734,55.734,0,0,0-3.056,42.829,55.733,55.733,0,0,0,28.124,32.447,55.871,55.871,0,0,0,25.05,5.959,56.223,56.223,0,0,0,17.778-2.9,55.737,55.737,0,0,0,32.447-28.124,55.733,55.733,0,0,0,3.057-42.83,55.736,55.736,0,0,0-28.124-32.447A55.877,55.877,0,0,0-1383.369-1593.019Zm.35,112.788a55.038,55.038,0,0,1-24.675-5.87,54.9,54.9,0,0,1-27.7-31.959,54.9,54.9,0,0,1,3.011-42.185,54.892,54.892,0,0,1,31.959-27.7,54.9,54.9,0,0,1,42.185,3.011,54.9,54.9,0,0,1,27.7,31.958,54.9,54.9,0,0,1-3.011,42.186,54.9,54.9,0,0,1-31.959,27.7A55.371,55.371,0,0,1-1383.019-1480.231Zm.105-109.969a54.755,54.755,0,0,0-17.32,2.826,54.3,54.3,0,0,0-31.609,27.4,54.293,54.293,0,0,0-2.979,41.725,54.3,54.3,0,0,0,27.4,31.611,54.3,54.3,0,0,0,41.726,2.979l.1.286-.1-.286a54.3,54.3,0,0,0,31.61-27.4,54.3,54.3,0,0,0,2.978-41.725,54.293,54.293,0,0,0-27.4-31.61A54.426,54.426,0,0,0-1382.913-1590.2Zm.353,109.894a53.58,53.58,0,0,1-24.028-5.716,53.461,53.461,0,0,1-26.976-31.123,53.466,53.466,0,0,1,2.933-41.082,53.456,53.456,0,0,1,31.123-26.975,53.459,53.459,0,0,1,41.081,2.932,53.458,53.458,0,0,1,26.975,31.123,53.457,53.457,0,0,1-2.932,41.081,53.459,53.459,0,0,1-31.122,26.976A53.932,53.932,0,0,1-1382.561-1480.306Zm.1-107.076a53.318,53.318,0,0,0-16.862,2.752,52.864,52.864,0,0,0-30.773,26.674,52.856,52.856,0,0,0-2.9,40.621,52.862,52.862,0,0,0,26.673,30.774,53,53,0,0,0,23.76,5.651,53.309,53.309,0,0,0,16.861-2.751,52.863,52.863,0,0,0,30.774-26.673,52.862,52.862,0,0,0,2.9-40.622,52.859,52.859,0,0,0-26.673-30.773A52.975,52.975,0,0,0-1382.458-1587.382Zm.355,107a52.146,52.146,0,0,1-23.383-5.562,52.02,52.02,0,0,1-26.25-30.286,52.02,52.02,0,0,1,2.854-39.978,52.021,52.021,0,0,1,30.286-26.25,52.024,52.024,0,0,1,39.978,2.853,52.026,52.026,0,0,1,26.25,30.286,52.022,52.022,0,0,1-2.853,39.978,52.028,52.028,0,0,1-30.286,26.25l-.1-.286.1.286A52.478,52.478,0,0,1-1382.1-1480.381Zm.1-104.182a51.868,51.868,0,0,0-16.4,2.678,51.42,51.42,0,0,0-29.938,25.948,51.426,51.426,0,0,0-2.82,39.518,51.427,51.427,0,0,0,25.948,29.938,51.553,51.553,0,0,0,23.114,5.5,51.825,51.825,0,0,0,16.4-2.677,51.426,51.426,0,0,0,29.938-25.949,51.421,51.421,0,0,0,2.821-39.517,51.421,51.421,0,0,0-25.948-29.937A51.555,51.555,0,0,0-1382-1584.563Zm.358,104.107a50.7,50.7,0,0,1-22.736-5.409,50.583,50.583,0,0,1-25.526-29.449,50.592,50.592,0,0,1,2.775-38.874,50.583,50.583,0,0,1,29.449-25.525,50.592,50.592,0,0,1,38.874,2.774,50.592,50.592,0,0,1,25.525,29.45,50.587,50.587,0,0,1-2.774,38.874,50.588,50.588,0,0,1-29.449,25.525A51.017,51.017,0,0,1-1381.644-1480.455Zm.1-101.288a50.409,50.409,0,0,0-15.944,2.6,49.988,49.988,0,0,0-29.1,25.223,49.984,49.984,0,0,0-2.741,38.413,49.98,49.98,0,0,0,25.223,29.1,50.11,50.11,0,0,0,22.468,5.345,50.432,50.432,0,0,0,15.945-2.6,49.993,49.993,0,0,0,29.1-25.224,49.993,49.993,0,0,0,2.742-38.413,49.988,49.988,0,0,0-25.223-29.1A50.1,50.1,0,0,0-1381.547-1581.743Zm.361,101.213a49.266,49.266,0,0,1-22.09-5.255,49.149,49.149,0,0,1-24.8-28.613,49.148,49.148,0,0,1,2.7-37.769,49.15,49.15,0,0,1,28.612-24.8,49.149,49.149,0,0,1,37.77,2.7,49.149,49.149,0,0,1,24.8,28.613,49.151,49.151,0,0,1-2.7,37.769,49.148,49.148,0,0,1-28.613,24.8l-.1-.286.1.286A49.593,49.593,0,0,1-1381.186-1480.53Zm.095-98.394a48.947,48.947,0,0,0-15.487,2.528,48.55,48.55,0,0,0-28.265,24.5,48.554,48.554,0,0,0-2.663,37.309,48.548,48.548,0,0,0,24.5,28.264,48.665,48.665,0,0,0,21.822,5.191,48.948,48.948,0,0,0,15.486-2.527,48.556,48.556,0,0,0,28.265-24.5,48.555,48.555,0,0,0,2.663-37.31,48.551,48.551,0,0,0-24.5-28.265A48.681,48.681,0,0,0-1381.091-1578.924Zm.363,98.319a47.828,47.828,0,0,1-21.445-5.1,47.714,47.714,0,0,1-24.075-27.777,47.715,47.715,0,0,1,2.617-36.666,47.713,47.713,0,0,1,27.776-24.075,47.717,47.717,0,0,1,36.666,2.617,47.717,47.717,0,0,1,24.075,27.778,47.712,47.712,0,0,1-2.617,36.664,47.712,47.712,0,0,1-27.776,24.076A48.126,48.126,0,0,1-1380.728-1480.605Zm.093-95.5a47.523,47.523,0,0,0-15.029,2.453,47.113,47.113,0,0,0-27.427,23.774,47.107,47.107,0,0,0-2.585,36.2,47.109,47.109,0,0,0,23.773,27.428,47.229,47.229,0,0,0,21.178,5.038,47.5,47.5,0,0,0,15.027-2.452,47.113,47.113,0,0,0,27.428-23.774,47.113,47.113,0,0,0,2.584-36.205,47.116,47.116,0,0,0-23.772-27.428A47.237,47.237,0,0,0-1380.635-1576.105Zm.366,95.425a46.373,46.373,0,0,1-20.8-4.948,46.271,46.271,0,0,1-23.351-26.939,46.272,46.272,0,0,1,2.539-35.561,46.276,46.276,0,0,1,26.94-23.35,46.277,46.277,0,0,1,35.561,2.538,46.282,46.282,0,0,1,23.351,26.94,46.278,46.278,0,0,1-2.539,35.562,46.271,46.271,0,0,1-26.939,23.351l-.1-.286.1.286A46.682,46.682,0,0,1-1380.269-1480.68Zm.089-92.605a46.075,46.075,0,0,0-14.57,2.378,45.676,45.676,0,0,0-26.592,23.049,45.679,45.679,0,0,0-2.5,35.1,45.673,45.673,0,0,0,23.048,26.592,45.793,45.793,0,0,0,20.53,4.884,46.048,46.048,0,0,0,14.57-2.378,45.682,45.682,0,0,0,26.591-23.048,45.679,45.679,0,0,0,2.506-35.1,45.676,45.676,0,0,0-23.049-26.591A45.782,45.782,0,0,0-1380.18-1573.286Zm.369,92.531a44.949,44.949,0,0,1-20.154-4.794,44.841,44.841,0,0,1-22.625-26.1,44.84,44.84,0,0,1,2.459-34.458,44.839,44.839,0,0,1,26.1-22.625,44.839,44.839,0,0,1,34.457,2.46,44.836,44.836,0,0,1,22.625,26.1,44.839,44.839,0,0,1-2.459,34.458,44.84,44.84,0,0,1-26.1,22.625A45.219,45.219,0,0,1-1379.811-1480.755Zm.086-89.712a44.618,44.618,0,0,0-14.112,2.3,44.239,44.239,0,0,0-25.755,22.323,44.237,44.237,0,0,0-2.427,34,44.244,44.244,0,0,0,22.323,25.756,44.361,44.361,0,0,0,19.885,4.73,44.642,44.642,0,0,0,14.112-2.3,44.24,44.24,0,0,0,25.755-22.324,44.241,44.241,0,0,0,2.427-34,44.242,44.242,0,0,0-22.324-25.755A44.347,44.347,0,0,0-1379.724-1570.467Zm.372,89.637a43.512,43.512,0,0,1-19.508-4.64,43.408,43.408,0,0,1-21.9-25.268,43.406,43.406,0,0,1,2.381-33.353,43.408,43.408,0,0,1,25.268-21.9,43.4,43.4,0,0,1,33.353,2.382,43.4,43.4,0,0,1,21.9,25.268,43.406,43.406,0,0,1-2.381,33.352,43.4,43.4,0,0,1-25.267,21.9A43.765,43.765,0,0,1-1379.353-1480.83Zm.083-86.818a43.156,43.156,0,0,0-13.653,2.229,42.807,42.807,0,0,0-24.918,21.6,42.806,42.806,0,0,0-2.348,32.893,42.8,42.8,0,0,0,21.6,24.919,42.921,42.921,0,0,0,19.239,4.576,43.173,43.173,0,0,0,13.653-2.228,42.808,42.808,0,0,0,24.919-21.6,42.8,42.8,0,0,0,2.347-32.893,42.8,42.8,0,0,0-21.6-24.918A42.9,42.9,0,0,0-1379.269-1567.648Zm.375,86.743a42.057,42.057,0,0,1-18.862-4.487,41.965,41.965,0,0,1-21.175-24.43,41.963,41.963,0,0,1,2.3-32.249,41.964,41.964,0,0,1,24.43-21.176,41.968,41.968,0,0,1,32.249,2.3,41.966,41.966,0,0,1,21.176,24.43,41.966,41.966,0,0,1-2.3,32.249,41.963,41.963,0,0,1-24.43,21.176A42.332,42.332,0,0,1-1378.894-1480.9Zm.081-83.924a41.7,41.7,0,0,0-13.195,2.154,41.367,41.367,0,0,0-24.083,20.874,41.372,41.372,0,0,0-2.269,31.788,41.373,41.373,0,0,0,20.874,24.083,41.374,41.374,0,0,0,31.788,2.269l.1.286-.1-.286a41.373,41.373,0,0,0,24.083-20.874,41.374,41.374,0,0,0,2.269-31.789,41.374,41.374,0,0,0-20.874-24.082A41.47,41.47,0,0,0-1378.814-1564.828Zm.378,83.849a40.628,40.628,0,0,1-18.217-4.333,40.53,40.53,0,0,1-20.45-23.594,40.53,40.53,0,0,1,2.223-31.145,40.532,40.532,0,0,1,23.6-20.45,40.526,40.526,0,0,1,31.144,2.223,40.532,40.532,0,0,1,20.451,23.594,40.531,40.531,0,0,1-2.223,31.145,40.528,40.528,0,0,1-23.594,20.451A40.882,40.882,0,0,1-1378.435-1480.979Zm.077-81.03a40.281,40.281,0,0,0-12.737,2.079,39.929,39.929,0,0,0-23.246,20.148,39.933,39.933,0,0,0-2.19,30.684,39.933,39.933,0,0,0,20.148,23.246,40.019,40.019,0,0,0,17.948,4.27,40.277,40.277,0,0,0,12.737-2.079,39.932,39.932,0,0,0,23.247-20.149,39.931,39.931,0,0,0,2.189-30.685,39.934,39.934,0,0,0-20.148-23.246A40.028,40.028,0,0,0-1378.358-1562.01Zm.38,80.956a39.191,39.191,0,0,1-17.571-4.18,39.093,39.093,0,0,1-19.726-22.758,39.092,39.092,0,0,1,2.145-30.041,39.09,39.09,0,0,1,22.758-19.725,39.092,39.092,0,0,1,30.04,2.144,39.1,39.1,0,0,1,19.726,22.759,39.1,39.1,0,0,1-2.145,30.041,39.091,39.091,0,0,1-22.758,19.725l-.1-.286.1.286A39.415,39.415,0,0,1-1377.978-1481.054Zm.075-78.136a38.828,38.828,0,0,0-12.279,2,38.5,38.5,0,0,0-22.41,19.423,38.5,38.5,0,0,0-2.11,29.58,38.492,38.492,0,0,0,19.423,22.41,38.583,38.583,0,0,0,17.3,4.115,38.818,38.818,0,0,0,12.278-2,38.494,38.494,0,0,0,22.41-19.424,38.493,38.493,0,0,0,2.111-29.581,38.49,38.49,0,0,0-19.423-22.409A38.585,38.585,0,0,0-1377.9-1559.19Zm.383,78.061a37.743,37.743,0,0,1-16.925-4.026,37.653,37.653,0,0,1-19-21.921,37.652,37.652,0,0,1,2.066-28.937,37.648,37.648,0,0,1,21.921-19,37.653,37.653,0,0,1,28.936,2.065,37.653,37.653,0,0,1,19,21.921,37.652,37.652,0,0,1-2.066,28.937,37.655,37.655,0,0,1-21.921,19A37.974,37.974,0,0,1-1377.519-1481.129Zm.073-75.242a37.364,37.364,0,0,0-11.82,1.93,37.054,37.054,0,0,0-21.574,18.7,37.061,37.061,0,0,0-2.033,28.477,37.058,37.058,0,0,0,18.7,21.574,37.153,37.153,0,0,0,16.655,3.962,37.386,37.386,0,0,0,11.82-1.929,37.064,37.064,0,0,0,21.574-18.7,37.059,37.059,0,0,0,2.032-28.476,37.056,37.056,0,0,0-18.7-21.573A37.141,37.141,0,0,0-1377.447-1556.371Zm.385,75.167a36.3,36.3,0,0,1-16.279-3.873,36.215,36.215,0,0,1-18.275-21.084,36.218,36.218,0,0,1,1.986-27.833,36.217,36.217,0,0,1,21.085-18.275,36.213,36.213,0,0,1,27.833,1.986,36.213,36.213,0,0,1,18.275,21.084,36.217,36.217,0,0,1-1.986,27.833,36.216,36.216,0,0,1-21.084,18.275l-.1-.286.1.286A36.546,36.546,0,0,1-1377.061-1481.2Zm.069-72.348a35.937,35.937,0,0,0-11.362,1.854,35.616,35.616,0,0,0-20.735,17.974,35.621,35.621,0,0,0-1.955,27.372,35.62,35.62,0,0,0,17.974,20.737,35.7,35.7,0,0,0,16.01,3.808,35.927,35.927,0,0,0,11.362-1.854,35.619,35.619,0,0,0,20.737-17.974,35.621,35.621,0,0,0,1.954-27.373,35.621,35.621,0,0,0-17.973-20.736A35.707,35.707,0,0,0-1376.992-1553.552Zm.389,72.273a34.86,34.86,0,0,1-15.633-3.719,34.78,34.78,0,0,1-17.551-20.248,34.781,34.781,0,0,1,1.908-26.729,34.779,34.779,0,0,1,20.249-17.551,34.78,34.78,0,0,1,26.728,1.908,34.78,34.78,0,0,1,17.55,20.249,34.777,34.777,0,0,1-1.908,26.728,34.783,34.783,0,0,1-20.248,17.551A35.075,35.075,0,0,1-1376.6-1481.279Zm.008-69.439a34.252,34.252,0,0,0-10.845,1.766,34.447,34.447,0,0,0-21.775,43.517,34.179,34.179,0,0,0,17.249,19.9,34.281,34.281,0,0,0,15.364,3.655,34.487,34.487,0,0,0,10.9-1.78,34.447,34.447,0,0,0,21.775-43.517A34.471,34.471,0,0,0-1376.595-1550.719Zm.45,69.365a33.428,33.428,0,0,1-14.987-3.565,33.348,33.348,0,0,1-16.826-19.413,33.345,33.345,0,0,1,1.829-25.625,33.345,33.345,0,0,1,19.412-16.825,33.6,33.6,0,0,1,42.45,21.241,33.6,33.6,0,0,1-21.241,42.45h0A33.639,33.639,0,0,1-1376.145-1481.353Zm.008-66.547a32.808,32.808,0,0,0-10.389,1.692,32.745,32.745,0,0,0-19.064,16.523,32.752,32.752,0,0,0-1.8,25.164,32.743,32.743,0,0,0,16.524,19.064,32.825,32.825,0,0,0,14.719,3.5,33.018,33.018,0,0,0,10.445-1.7,33,33,0,0,0,20.86-41.688A33.024,33.024,0,0,0-1376.137-1547.9Zm.451,66.472a32,32,0,0,1-14.342-3.411,31.915,31.915,0,0,1-16.1-18.576,32.155,32.155,0,0,1,20.326-40.621,31.9,31.9,0,0,1,24.52,1.75,31.908,31.908,0,0,1,16.1,18.576,31.9,31.9,0,0,1-1.751,24.52,31.908,31.908,0,0,1-18.575,16.1A32.181,32.181,0,0,1-1375.686-1481.428Zm.061-63.666a31.56,31.56,0,0,0-9.986,1.63,31.552,31.552,0,0,0-19.945,39.858,31.575,31.575,0,0,0,29.925,21.562,31.4,31.4,0,0,0,9.933-1.616,31.551,31.551,0,0,0,19.944-39.858,31.306,31.306,0,0,0-15.8-18.228A31.371,31.371,0,0,0-1375.625-1545.094Zm.45,63.579A30.726,30.726,0,0,1-1404.3-1502.5a30.708,30.708,0,0,1,19.411-38.792,30.469,30.469,0,0,1,23.416,1.672,30.47,30.47,0,0,1,15.376,17.74,30.707,30.707,0,0,1-19.411,38.791A30.568,30.568,0,0,1-1375.175-1481.516Zm.006-60.76a30.141,30.141,0,0,0-9.529,1.555,30.1,30.1,0,0,0-19.029,38.03,30.125,30.125,0,0,0,28.551,20.573,29.954,29.954,0,0,0,9.478-1.542,30.105,30.105,0,0,0,19.03-38.03,29.877,29.877,0,0,0-15.074-17.391A29.95,29.95,0,0,0-1375.169-1542.276Z" transform="translate(-1271.886 -1403.172) rotate(-180)" fill="#1f1249"/>
</svg>
